<?xml version="1.0" encoding="utf-8"?>
<!-- Generator: Adobe Illustrator 23.0.0, SVG Export Plug-In . SVG Version: 6.00 Build 0)  -->
<svg version="1.1" id="Layer_1" xmlns="http://www.w3.org/2000/svg" xmlns:xlink="http://www.w3.org/1999/xlink" x="0px" y="0px"
	 viewBox="0 0 626.5 718.8" style="enable-background:new 0 0 626.5 718.8;" xml:space="preserve">
<style type="text/css">
	.st0{opacity:0.69;}
	.st1{fill:#FFFFFF;}
	.st2{fill:none;stroke:#242058;stroke-width:0.25;stroke-miterlimit:10;stroke-dasharray:1.5;}
	.st3{fill:#242058;}
	.st4{font-family:'Kanit-Light';}
	.st5{font-size:12.2679px;}
	.st6{fill:none;stroke:#242058;stroke-width:0.5;stroke-miterlimit:10;}
	.st7{fill:#3D84A8;}
	.st8{font-family:'Kanit-Bold';}
	.st9{font-size:24.5358px;}
	.st10{fill:none;}
	.st11{fill:#48476E;}
	.st12{fill:none;stroke:#00BBE2;stroke-width:3;stroke-linecap:round;stroke-linejoin:round;stroke-miterlimit:10;}
	.st13{fill:#4567B0;}
	.st14{fill:#211C51;}
	.st15{fill:#54C4C9;}
</style>
<g class="st0">
	<rect x="13.2" y="7.3" class="st1" width="596.1" height="356.5"/>
	<g>
		<line class="st2" x1="119.6" y1="306.4" x2="119.6" y2="102"/>
		<line class="st2" x1="157.7" y1="306.4" x2="157.7" y2="102"/>
		<line class="st2" x1="195.8" y1="306.4" x2="195.8" y2="102"/>
		<line class="st2" x1="233.8" y1="306.4" x2="233.8" y2="102"/>
		<line class="st2" x1="271.9" y1="306.4" x2="271.9" y2="102"/>
		<line class="st2" x1="310" y1="306.4" x2="310" y2="102"/>
		<line class="st2" x1="348" y1="306.4" x2="348" y2="102"/>
		<line class="st2" x1="386.1" y1="306.4" x2="386.1" y2="102"/>
		<line class="st2" x1="424.2" y1="306.4" x2="424.2" y2="102"/>
		<line class="st2" x1="462.3" y1="306.4" x2="462.3" y2="102"/>
		<line class="st2" x1="500.4" y1="306.4" x2="500.4" y2="102"/>
		<line class="st2" x1="538.4" y1="306.4" x2="538.4" y2="102"/>
		<g>
			<text transform="matrix(1 0 0 1 60.3898 281.3667)" class="st3 st4 st5">5</text>
		</g>
		<g>
			<text transform="matrix(1 0 0 1 53.4879 251.3188)" class="st3 st4 st5">10</text>
		</g>
		<g>
			<text transform="matrix(1 0 0 1 53.4908 221.271)" class="st3 st4 st5">15</text>
		</g>
		<g>
			<text transform="matrix(1 0 0 1 53.4879 191.2231)" class="st3 st4 st5">20</text>
		</g>
		<g>
			<text transform="matrix(1 0 0 1 53.4908 161.1763)" class="st3 st4 st5">25</text>
		</g>
		<g>
			<text transform="matrix(1 0 0 1 53.4879 131.1274)" class="st3 st4 st5">30</text>
		</g>
		<g>
			<text transform="matrix(1 0 0 1 105.3067 325.7437)" class="st3 st4 st5">Jan</text>
		</g>
		<g>
			<text transform="matrix(1 0 0 1 147.3707 325.7437)" class="st3 st4 st5">Feb</text>
		</g>
		<g>
			<text transform="matrix(1 0 0 1 184.8829 325.7437)" class="st3 st4 st5">Mar</text>
		</g>
		<g>
			<text transform="matrix(1 0 0 1 224.2638 325.7437)" class="st3 st4 st5">Apr</text>
		</g>
		<g>
			<text transform="matrix(1 0 0 1 260.0538 325.7437)" class="st3 st4 st5">May</text>
		</g>
		<g>
			<text transform="matrix(1 0 0 1 299.6197 325.7437)" class="st3 st4 st5">Jun</text>
		</g>
		<g>
			<text transform="matrix(1 0 0 1 339.6329 325.7437)" class="st3 st4 st5">Jul</text>
		</g>
		<g>
			<text transform="matrix(1 0 0 1 375.1803 325.7437)" class="st3 st4 st5">Aug</text>
		</g>
		<g>
			<text transform="matrix(1 0 0 1 413.6476 325.7437)" class="st3 st4 st5">Sep</text>
		</g>
		<g>
			<text transform="matrix(1 0 0 1 452.7208 325.7437)" class="st3 st4 st5">Oct</text>
		</g>
		<g>
			<text transform="matrix(1 0 0 1 489.4044 325.7437)" class="st3 st4 st5">Nov</text>
		</g>
		<g>
			<text transform="matrix(1 0 0 1 527.8878 325.7437)" class="st3 st4 st5">Dec</text>
		</g>
		<line class="st6" x1="78.8" y1="277.3" x2="83.5" y2="277.3"/>
		<line class="st6" x1="78.8" y1="246.7" x2="83.5" y2="246.7"/>
		<line class="st6" x1="78.8" y1="216.2" x2="83.5" y2="216.2"/>
		<line class="st6" x1="78.8" y1="185.7" x2="83.5" y2="185.7"/>
		<line class="st6" x1="78.8" y1="155.2" x2="83.5" y2="155.2"/>
		<line class="st6" x1="78.8" y1="124.7" x2="83.5" y2="124.7"/>
		<line class="st2" x1="83.8" y1="277.3" x2="568.9" y2="277.3"/>
		<line class="st2" x1="83.8" y1="246.7" x2="568.9" y2="246.7"/>
		<line class="st2" x1="83.8" y1="216.2" x2="568.9" y2="216.2"/>
		<line class="st2" x1="83.8" y1="185.7" x2="568.9" y2="185.7"/>
		<line class="st2" x1="83.8" y1="155.2" x2="568.9" y2="155.2"/>
		<line class="st2" x1="83.8" y1="124.7" x2="568.9" y2="124.7"/>
		<polyline class="st6" points="83.8,102 83.8,306.4 568.9,306.4 		"/>
	</g>
	<g>
		<text transform="matrix(1 0 0 1 231.2189 52.1313)" class="st7 st8 st9">GRAPH ANALYSIS</text>
	</g>
	<g>
		<rect x="216.2" y="62.9" class="st10" width="232.5" height="15.3"/>
		<text transform="matrix(1 0 0 1 234.7135 72.2158)" class="st11 st4 st5">PROFIT GROWTH OF THE COMPANY</text>
	</g>
	<polyline class="st12" points="83.8,306.4 157.7,246.7 233.8,246.7 271.9,185.6 310,185.6 348,216.2 386.1,156.4 424.2,246.7 
		462.3,216.2 500.4,216.2 538.4,185.6 568.9,185.6 	"/>
	<path class="st13" d="M164.4,246.7c0,3.7-3,6.7-6.7,6.7s-6.7-3-6.7-6.7s3-6.7,6.7-6.7S164.4,243.1,164.4,246.7z"/>
	<path class="st13" d="M278.6,185.6c0,3.7-3,6.7-6.7,6.7s-6.7-3-6.7-6.7s3-6.7,6.7-6.7C275.6,178.9,278.6,181.9,278.6,185.6z"/>
	<path class="st13" d="M392.8,156.4c0,3.7-3,6.7-6.7,6.7s-6.7-3-6.7-6.7s3-6.7,6.7-6.7S392.8,152.7,392.8,156.4z"/>
	<path class="st13" d="M545.1,185.6c0,3.7-3,6.7-6.7,6.7s-6.7-3-6.7-6.7s3-6.7,6.7-6.7S545.1,181.9,545.1,185.6z"/>
</g>
<g>
	<path class="st7" d="M551.1,247.3c0,0,40.3,41.1,42.3,56.8s-19.2,40.3-19.2,40.3L551.1,247.3z"/>
	<path class="st14" d="M533.8,679.6c0,0-0.9,13.8-3.3,19.8h-50.4c0.9-2,2.8-4.5,7.4-5.3c7.9-1.4,21.1-6.9,25.9-17.4
		C518.4,665.7,533.8,679.6,533.8,679.6z"/>
	<path class="st14" d="M594,679.6c0,0-0.9,13.8-3.3,19.8h-50.4c0.8-2,2.8-4.5,7.4-5.3c7.9-1.4,21.1-6.9,25.9-17.4
		C578.6,665.7,594,679.6,594,679.6z"/>
	<path class="st14" d="M503.9,441.5c0,0,7.1,45.2,33.4,125.5c26.4,80.3,30,115,30,115l28.3-0.8c0,0,0.2-87.7-11.9-128
		c-12.2-40.3-2.6-145.5-2.6-145.5L503.9,441.5z"/>
	<path class="st11" d="M490.1,410.1c0,0-1,68.1,10.8,151.8c11.8,83.7,7.8,119.2,7.8,119.2L537,682c0,0,16.9-83.7,12-125.5
		c-4.8-41.9,23.1-143.7,23.1-143.7L490.1,410.1z"/>
	<path class="st15" d="M544.8,250.7l-15,9.9l-21.7-4c0.3-1.8,1.7-9,3-15.6c0.1-0.4,0.2-0.8,0.2-1.2c1.1-5.6,2.1-10.4,2.1-10.4
		l20.3-9l7.6-3.3c0,0.1-0.6,6.2-0.7,7.1C539.2,239.9,544.8,250.7,544.8,250.7z"/>
	<path class="st15" d="M582.9,418.5c-4.4,19.9-77,22.3-95.7,4.2c-2.1-2.1-2.2-11.6-1.4-24.6c1.6-25.3,6.6-63.2,6.8-82.6
		c0.1-9.4,1.4-19,3.1-27.7c3.6-18.5,9.2-33.1,9.2-33.1s35.5-11.5,42.1-9.5C579,254.6,587.3,398.6,582.9,418.5z"/>
	<path class="st7" d="M485.8,398.1c1.6-25.3,6.6-63.2,6.8-82.6c0.1-9.4,1.4-19,3.1-27.7l21.4-3.8C517,284.1,537.9,369.3,485.8,398.1
		z"/>
	<path class="st15" d="M497.3,362.9c0,0,1.5,3.5-1.6,5.8s-5,6.1-4.3,8.9s7.4,7.3,9.7,6.5c2.3-0.7,7-4.4,6.5-5.8
		c-0.5-1.5,3.2-12.8-2.5-17.2C499.5,356.8,497.3,362.9,497.3,362.9z"/>
	<path class="st15" d="M521.2,249.6c0,0-20.8,3.9-37.4,28.3c-16.6,24.5-27.5,42.6-24.5,51.4c3.1,8.8,30.9,39.4,35.7,39.4
		s12.5-3.5,13-11.4c0,0-19.6-29.4-15.8-33.8c1.6-1.9,25.5-21.2,28.9-12.5C526.8,325.6,521.2,249.6,521.2,249.6z"/>
	<path class="st15" d="M539,224.4c-4.5,7.6-21.1,14.1-28,16.5c0.1-0.4,0.2-0.8,0.2-1.2c1.1-5.6,2.1-10.4,2.1-10.4l20.3-9
		C538.2,220.3,540.9,221.3,539,224.4z"/>
	<path class="st15" d="M505.7,228.1c0,0,32.7,10.2,38.7-10.3s14.3-32.9-6.3-40.3s-27-0.8-30.7,5.6
		C503.8,189.4,497.4,224.9,505.7,228.1z"/>
	<path class="st11" d="M508.8,181.1c0,0,2.1,23.8,7,22.8c4.9-1,9.4-1.8,8.7,5.4s-7.5,15.5,7.6,16.7s37-37.9,32.8-45.3
		C552.9,159.3,491.4,155,508.8,181.1z"/>
	<path class="st7" d="M513.6,245.7c0.4-0.2,26.2-7.8,29-6.9c2.8,0.9,4.5,6.3,4.5,6.3l-42.1,9.5C504.9,254.7,508.2,248,513.6,245.7z"
		/>
</g>
</svg>
