<?xml version="1.0" encoding="utf-8"?>
<!-- Generator: Adobe Illustrator 23.0.0, SVG Export Plug-In . SVG Version: 6.00 Build 0)  -->
<svg version="1.1" id="Layer_1" xmlns="http://www.w3.org/2000/svg" xmlns:xlink="http://www.w3.org/1999/xlink" x="0px" y="0px"
	 viewBox="0 0 626.53 718.8" style="enable-background:new 0 0 626.53 718.8;" xml:space="preserve">
<style type="text/css">
	.st0{opacity:0.69;}
	.st1{fill:#FFFFFF;}
	.st2{fill:none;stroke:#242058;stroke-width:0.25;stroke-miterlimit:10;stroke-dasharray:1.5;}
	.st3{fill:#242058;}
	.st4{font-family:'Roboto-Regular';}
	.st5{font-size:12.2679px;}
	.st6{fill:none;stroke:#242058;stroke-width:0.5;stroke-miterlimit:10;}
	.st7{fill:#3D84A8;}
	.st8{font-size:24.5358px;}
	.st9{fill:none;}
	.st10{fill:#48476E;}
	.st11{fill:none;stroke:#00BBE2;stroke-width:3;stroke-linecap:round;stroke-linejoin:round;stroke-miterlimit:10;}
	.st12{fill:#4567B0;}
	.st13{fill:#211C51;}
	.st14{fill:#54C4C9;}
</style>
<g class="st0">
	<rect x="13.18" y="7.32" class="st1" width="596.08" height="356.49"/>
	<g>
		<line class="st2" x1="119.6" y1="306.38" x2="119.6" y2="101.97"/>
		<line class="st2" x1="157.67" y1="306.38" x2="157.67" y2="101.97"/>
		<line class="st2" x1="195.75" y1="306.38" x2="195.75" y2="101.97"/>
		<line class="st2" x1="233.82" y1="306.38" x2="233.82" y2="101.97"/>
		<line class="st2" x1="271.9" y1="306.38" x2="271.9" y2="101.97"/>
		<line class="st2" x1="309.97" y1="306.38" x2="309.97" y2="101.97"/>
		<line class="st2" x1="348.05" y1="306.38" x2="348.05" y2="101.97"/>
		<line class="st2" x1="386.12" y1="306.38" x2="386.12" y2="101.97"/>
		<line class="st2" x1="424.2" y1="306.38" x2="424.2" y2="101.97"/>
		<line class="st2" x1="462.28" y1="306.38" x2="462.28" y2="101.97"/>
		<line class="st2" x1="500.35" y1="306.38" x2="500.35" y2="101.97"/>
		<line class="st2" x1="538.43" y1="306.38" x2="538.43" y2="101.97"/>
		<g>
			<text transform="matrix(1 0 0 1 60.3898 281.3667)" class="st3 st4 st5">5</text>
		</g>
		<g>
			<text transform="matrix(1 0 0 1 53.4879 251.3188)" class="st3 st4 st5">10</text>
		</g>
		<g>
			<text transform="matrix(1 0 0 1 53.4908 221.271)" class="st3 st4 st5">15</text>
		</g>
		<g>
			<text transform="matrix(1 0 0 1 53.4879 191.2231)" class="st3 st4 st5">20</text>
		</g>
		<g>
			<text transform="matrix(1 0 0 1 53.4908 161.1763)" class="st3 st4 st5">25</text>
		</g>
		<g>
			<text transform="matrix(1 0 0 1 53.4879 131.1274)" class="st3 st4 st5">30</text>
		</g>
		<g>
			<text transform="matrix(1 0 0 1 105.3067 325.7437)" class="st3 st4 st5">Jan</text>
		</g>
		<g>
			<text transform="matrix(1 0 0 1 147.3707 325.7437)" class="st3 st4 st5">Feb</text>
		</g>
		<g>
			<text transform="matrix(1 0 0 1 184.8829 325.7437)" class="st3 st4 st5">Mar</text>
		</g>
		<g>
			<text transform="matrix(1 0 0 1 224.2638 325.7437)" class="st3 st4 st5">Apr</text>
		</g>
		<g>
			<text transform="matrix(1 0 0 1 260.0538 325.7437)" class="st3 st4 st5">May</text>
		</g>
		<g>
			<text transform="matrix(1 0 0 1 299.6197 325.7437)" class="st3 st4 st5">Jun</text>
		</g>
		<g>
			<text transform="matrix(1 0 0 1 339.6329 325.7437)" class="st3 st4 st5">Jul</text>
		</g>
		<g>
			<text transform="matrix(1 0 0 1 375.1803 325.7437)" class="st3 st4 st5">Aug</text>
		</g>
		<g>
			<text transform="matrix(1 0 0 1 413.6476 325.7437)" class="st3 st4 st5">Sep</text>
		</g>
		<g>
			<text transform="matrix(1 0 0 1 452.7208 325.7437)" class="st3 st4 st5">Oct</text>
		</g>
		<g>
			<text transform="matrix(1 0 0 1 489.4044 325.7437)" class="st3 st4 st5">Nov</text>
		</g>
		<g>
			<text transform="matrix(1 0 0 1 527.8878 325.7437)" class="st3 st4 st5">Dec</text>
		</g>
		<line class="st6" x1="78.81" y1="277.26" x2="83.54" y2="277.26"/>
		<line class="st6" x1="78.81" y1="246.75" x2="83.54" y2="246.75"/>
		<line class="st6" x1="78.81" y1="216.24" x2="83.54" y2="216.24"/>
		<line class="st6" x1="78.81" y1="185.73" x2="83.54" y2="185.73"/>
		<line class="st6" x1="78.81" y1="155.22" x2="83.54" y2="155.22"/>
		<line class="st6" x1="78.81" y1="124.71" x2="83.54" y2="124.71"/>
		<line class="st2" x1="83.85" y1="277.26" x2="568.93" y2="277.26"/>
		<line class="st2" x1="83.85" y1="246.75" x2="568.93" y2="246.75"/>
		<line class="st2" x1="83.85" y1="216.24" x2="568.93" y2="216.24"/>
		<line class="st2" x1="83.85" y1="185.73" x2="568.93" y2="185.73"/>
		<line class="st2" x1="83.85" y1="155.22" x2="568.93" y2="155.22"/>
		<line class="st2" x1="83.85" y1="124.71" x2="568.93" y2="124.71"/>
		<polyline class="st6" points="83.85,101.97 83.85,306.38 568.93,306.38 		"/>
	</g>
	<g>
		<text transform="matrix(1 0 0 1 231.2189 52.1313)" class="st7 st4 st8">GRAPH ANALYSIS</text>
	</g>
	<g>
		<rect x="216.22" y="62.87" class="st9" width="232.53" height="15.33"/>
		<text transform="matrix(1 0 0 1 230.7135 72.2158)" class="st10 st4 st5">PROFIT GROWTH OF THE COMPANY</text>
	</g>
	<polyline class="st11" points="83.85,306.38 157.67,246.75 233.82,246.75 271.9,185.56 309.97,185.56 348.05,216.24 386.12,156.38 
		424.2,246.75 462.28,216.24 500.35,216.24 538.43,185.56 568.93,185.56 	"/>
	<path class="st12" d="M164.37,246.75c0,3.7-3,6.69-6.69,6.69c-3.7,0-6.69-3-6.69-6.69s3-6.69,6.69-6.69
		C161.37,240.06,164.37,243.06,164.37,246.75z"/>
	<path class="st12" d="M278.59,185.56c0,3.7-3,6.69-6.69,6.69c-3.7,0-6.69-3-6.69-6.69c0-3.7,3-6.69,6.69-6.69
		C275.6,178.87,278.59,181.87,278.59,185.56z"/>
	<path class="st12" d="M392.82,156.38c0,3.7-3,6.69-6.69,6.69c-3.7,0-6.69-3-6.69-6.69s3-6.69,6.69-6.69
		C389.82,149.69,392.82,152.68,392.82,156.38z"/>
	<path class="st12" d="M545.12,185.56c0,3.7-3,6.69-6.69,6.69c-3.7,0-6.69-3-6.69-6.69c0-3.7,3-6.69,6.69-6.69
		C542.12,178.87,545.12,181.87,545.12,185.56z"/>
</g>
<g>
	<path class="st7" d="M551.12,247.34c0,0,40.34,41.08,42.28,56.8c1.94,15.72-19.21,40.3-19.21,40.3L551.12,247.34z"/>
	<path class="st13" d="M533.84,679.62c0,0-0.86,13.84-3.34,19.8h-50.44c0.85-1.98,2.83-4.53,7.43-5.33
		c7.9-1.38,21.12-6.93,25.91-17.37C518.42,665.74,533.84,679.62,533.84,679.62z"/>
	<path class="st13" d="M594.03,679.62c0,0-0.86,13.84-3.34,19.8h-50.44c0.85-1.98,2.83-4.53,7.43-5.33
		c7.9-1.38,21.12-6.93,25.91-17.37C578.62,665.74,594.03,679.62,594.03,679.62z"/>
	<path class="st13" d="M503.9,441.5c0,0,7.07,45.21,33.44,125.45c26.37,80.25,29.96,115,29.96,115l28.29-0.79
		c0,0,0.24-87.7-11.91-128.05c-12.15-40.35-2.62-145.48-2.62-145.48L503.9,441.5z"/>
	<path class="st10" d="M490.14,410.1c0,0-1,68.12,10.79,151.76c11.79,83.64,7.79,119.15,7.79,119.15l28.23,0.94
		c0,0,16.87-83.67,12.03-125.54c-4.84-41.86,23.1-143.66,23.1-143.66L490.14,410.1z"/>
	<path class="st14" d="M544.79,250.69l-15.04,9.86l-21.74-4.05c0.3-1.76,1.74-9.03,3.04-15.61c0.08-0.39,0.16-0.78,0.23-1.16
		c1.12-5.61,2.09-10.42,2.09-10.42l20.3-8.96l7.57-3.34c-0.02,0.12-0.59,6.22-0.67,7.11C539.16,239.94,544.79,250.69,544.79,250.69z
		"/>
	<path class="st14" d="M582.93,418.51c-4.37,19.91-77.02,22.28-95.74,4.2c-2.13-2.06-2.23-11.65-1.43-24.57
		c1.57-25.25,6.62-63.24,6.81-82.65c0.1-9.37,1.38-18.96,3.1-27.66c3.65-18.55,9.21-33.11,9.21-33.11s35.49-11.47,42.13-9.52
		C578.99,254.6,587.29,398.6,582.93,418.51z"/>
	<path class="st7" d="M485.75,398.14c1.57-25.25,6.62-63.24,6.81-82.65c0.1-9.37,1.38-18.96,3.1-27.66l21.35-3.77
		C517.01,284.06,537.88,369.31,485.75,398.14z"/>
	<path class="st14" d="M497.31,362.94c0,0,1.46,3.48-1.6,5.81c-3.06,2.34-5.04,6.12-4.34,8.88c0.7,2.76,7.4,7.27,9.73,6.55
		c2.32-0.73,7.05-4.37,6.54-5.83c-0.51-1.46,3.18-12.8-2.48-17.16C499.49,356.83,497.31,362.94,497.31,362.94z"/>
	<path class="st14" d="M521.18,249.61c0,0-20.82,3.9-37.41,28.34c-16.59,24.45-27.5,42.62-24.45,51.43
		c3.06,8.81,30.91,39.37,35.71,39.37c4.8,0,12.55-3.49,12.99-11.35c0,0-19.61-29.39-15.75-33.79c1.65-1.88,25.46-21.21,28.86-12.48
		C526.76,325.57,521.18,249.61,521.18,249.61z"/>
	<path class="st14" d="M539.05,224.4c-4.46,7.55-21.07,14.08-28,16.48c0.08-0.39,0.16-0.78,0.23-1.16
		c1.12-5.61,2.09-10.42,2.09-10.42l20.3-8.96C538.16,220.29,540.89,221.29,539.05,224.4z"/>
	<path class="st14" d="M505.72,228.07c0,0,32.7,10.2,38.74-10.26c6.04-20.46,14.33-32.93-6.3-40.31c-20.62-7.38-27-0.77-30.68,5.57
		C503.8,189.41,497.37,224.89,505.72,228.07z"/>
	<path class="st10" d="M508.77,181.1c0,0,2.09,23.81,7.01,22.78c4.92-1.03,9.39-1.8,8.67,5.38c-0.72,7.18-7.55,15.47,7.63,16.74
		c15.18,1.27,36.99-37.87,32.83-45.28C552.87,159.33,491.38,155.01,508.77,181.1z"/>
	<path class="st7" d="M513.58,245.71c0.42-0.18,26.18-7.78,28.97-6.85c2.8,0.92,4.45,6.34,4.45,6.34l-42.12,9.52
		C504.88,254.72,508.2,247.98,513.58,245.71z"/>
</g>
</svg>
