<?xml version="1.0" encoding="utf-8"?>
<!-- Generator: Adobe Illustrator 23.0.0, SVG Export Plug-In . SVG Version: 6.00 Build 0)  -->
<svg version="1.1" id="Layer_1" xmlns="http://www.w3.org/2000/svg" xmlns:xlink="http://www.w3.org/1999/xlink" x="0px" y="0px"
	 viewBox="0 0 1366 768" style="enable-background:new 0 0 1366 768;" xml:space="preserve">
<style type="text/css">
	.st0{fill:url(#SVGID_1_);}
	.st1{fill:url(#SVGID_2_);}
	.st2{fill:url(#SVGID_3_);}
	.st3{fill:url(#SVGID_4_);}
</style>
<linearGradient id="SVGID_1_" gradientUnits="userSpaceOnUse" x1="250.61" y1="490.2613" x2="145.1319" y2="877.1404" gradientTransform="matrix(1 0 0 -1 0 767.89)">
	<stop  offset="0" style="stop-color:#FFFFFF"/>
	<stop  offset="0.1144" style="stop-color:#4ECDEE"/>
	<stop  offset="0.4695" style="stop-color:#50CEEE"/>
	<stop  offset="0.5974" style="stop-color:#57CFEF"/>
	<stop  offset="0.6886" style="stop-color:#62D3F0"/>
	<stop  offset="0.7624" style="stop-color:#73D8F2"/>
	<stop  offset="0.8255" style="stop-color:#89DEF4"/>
	<stop  offset="0.8815" style="stop-color:#A5E5F6"/>
	<stop  offset="0.932" style="stop-color:#C5EFF9"/>
	<stop  offset="0.977" style="stop-color:#E9F9FD"/>
	<stop  offset="1" style="stop-color:#FFFFFF"/>
</linearGradient>
<path class="st0" d="M1,194c0,0,126,70,215,23S381,40,402,1L1,0V194z"/>
<linearGradient id="SVGID_2_" gradientUnits="userSpaceOnUse" x1="-67.7235" y1="-936.4655" x2="1361.2368" y2="492.4948" gradientTransform="matrix(1 0 0 -1 0 767.89)">
	<stop  offset="0" style="stop-color:#4FCDEE"/>
	<stop  offset="0.2057" style="stop-color:#3AAAF3"/>
	<stop  offset="0.6099" style="stop-color:#1268FB"/>
	<stop  offset="0.8422" style="stop-color:#9089E8"/>
	<stop  offset="0.9463" style="stop-color:#C496E0"/>
</linearGradient>
<path class="st1" d="M1362.2,768c-0.2-187.7-0.3-375.4-0.5-563.1c-6-0.9-64.4-7.3-116.5,58.1c-20.1,25.3-33.5,35-46,36.6
	c-33.2,4.2-49.5-17.4-90.4-25.6c-64.3-13-123.2,30.5-129.2,35c-59.8,45.4-42.6,102.1-86.5,116c-43.8,13.8-75.4-38-134.3-21
	c-22.5,6.5-37.4,19.7-50,30.7c-30.6,27.1-45.6,59.5-56.9,92.3c-32.6,93.8-40.5,201.7-42.7,241C860.2,768,1111.2,768,1362.2,768z"/>
<linearGradient id="SVGID_3_" gradientUnits="userSpaceOnUse" x1="1136" y1="588.89" x2="1188" y2="588.89" gradientTransform="matrix(1 0 0 -1 0 767.89)">
	<stop  offset="0" style="stop-color:#FFFFFF"/>
	<stop  offset="0" style="stop-color:#1268FB"/>
	<stop  offset="0" style="stop-color:#296EF8"/>
	<stop  offset="0" style="stop-color:#637DEF"/>
	<stop  offset="0" style="stop-color:#C195E0"/>
	<stop  offset="0" style="stop-color:#C496E0"/>
</linearGradient>
<circle class="st2" cx="1162" cy="179" r="26"/>
<linearGradient id="SVGID_4_" gradientUnits="userSpaceOnUse" x1="818" y1="479.39" x2="911" y2="479.39" gradientTransform="matrix(1 0 0 -1 0 767.89)">
	<stop  offset="0" style="stop-color:#FFFFFF"/>
	<stop  offset="0" style="stop-color:#1268FB"/>
	<stop  offset="0" style="stop-color:#296EF8"/>
	<stop  offset="0" style="stop-color:#637DEF"/>
	<stop  offset="0" style="stop-color:#C195E0"/>
	<stop  offset="0" style="stop-color:#C496E0"/>
</linearGradient>
<circle class="st3" cx="864.5" cy="288.5" r="46.5"/>
</svg>
