<?xml version="1.0" encoding="utf-8"?>
<!-- Generator: Adobe Illustrator 23.0.0, SVG Export Plug-In . SVG Version: 6.00 Build 0)  -->
<svg version="1.1" id="Layer_1" xmlns="http://www.w3.org/2000/svg" xmlns:xlink="http://www.w3.org/1999/xlink" x="0px" y="0px"
	 viewBox="0 0 1366 768" style="enable-background:new 0 0 1366 768;" xml:space="preserve">
<style type="text/css">
	.st0{fill:url(#SVGID_1_);}
	.st1{fill:url(#SVGID_2_);}
</style>
<linearGradient id="SVGID_1_" gradientUnits="userSpaceOnUse" x1="683.0447" y1="-545.3178" x2="683.6586" y2="311.3805" gradientTransform="matrix(1 0 0 -1 0 768)">
	<stop  offset="0" style="stop-color:#1268FB"/>
	<stop  offset="0.2618" style="stop-color:#8887E9"/>
	<stop  offset="0.4042" style="stop-color:#C496E0"/>
	<stop  offset="0.4231" style="stop-color:#BA9BE1"/>
	<stop  offset="0.5364" style="stop-color:#80B6E8"/>
	<stop  offset="0.6204" style="stop-color:#5DC7EC"/>
	<stop  offset="0.6652" style="stop-color:#4FCDEE"/>
</linearGradient>
<path class="st0" d="M1367,768c0-46.3,0-92.7,0-139c-2.1-10.7-28.7-135.8-136.6-177.1c-87.9-33.6-173.4,9.9-194.4,21.6
	c-73.9,41.2-67.6,89.3-138.2,116.6c-71.5,27.6-142,3.2-157.7-2.2c-65.9-22.8-67.1-55.2-136.7-96c-25.7-15-130.5-76.4-226.2-46.6
	c-80.8,25.2-81.7,92.6-166.3,133.9C137.4,615.2,57.5,603.9,0,587.9c0.7,27.6,1.2,55.7,1.4,84.1c0.3,32.5,0.3,64.5,0,96H1367z"/>
<linearGradient id="SVGID_2_" gradientUnits="userSpaceOnUse" x1="1103.0957" y1="444.9899" x2="1103.3099" y2="743.8939" gradientTransform="matrix(1 0 0 -1 0 768)">
	<stop  offset="0" style="stop-color:#1268FB"/>
	<stop  offset="5.450700e-04" style="stop-color:#2B92F6"/>
	<stop  offset="1.361785e-03" style="stop-color:#4FCDEE"/>
	<stop  offset="0.199" style="stop-color:#53CBEE"/>
	<stop  offset="0.3817" style="stop-color:#5EC6EC"/>
	<stop  offset="0.5585" style="stop-color:#71BDEA"/>
	<stop  offset="0.7318" style="stop-color:#8BB1E7"/>
	<stop  offset="0.9007" style="stop-color:#ADA1E3"/>
	<stop  offset="1" style="stop-color:#C496E0"/>
</linearGradient>
<circle class="st1" cx="1103.2" cy="177.6" r="123"/>
</svg>
