<?xml version="1.0" encoding="utf-8"?>
<!-- Generator: Adobe Illustrator 23.0.0, SVG Export Plug-In . SVG Version: 6.00 Build 0)  -->
<svg version="1.1" id="Layer_1" xmlns="http://www.w3.org/2000/svg" xmlns:xlink="http://www.w3.org/1999/xlink" x="0px" y="0px"
	 viewBox="0 0 1366 768" style="enable-background:new 0 0 1366 768;" xml:space="preserve">
<style type="text/css">
	.st0{fill:url(#SVGID_1_);}
	.st1{fill:url(#SVGID_2_);}
</style>
<linearGradient id="SVGID_1_" gradientUnits="userSpaceOnUse" x1="682.8937" y1="1567.9008" x2="683.7113" y2="427.0778" gradientTransform="matrix(1 0 0 1 0 -73.89)">
	<stop  offset="0" style="stop-color:#1268FB"/>
	<stop  offset="0.2618" style="stop-color:#8887E9"/>
	<stop  offset="0.4042" style="stop-color:#C496E0"/>
	<stop  offset="0.4231" style="stop-color:#BA9BE1"/>
	<stop  offset="0.5364" style="stop-color:#80B6E8"/>
	<stop  offset="0.6204" style="stop-color:#5DC7EC"/>
	<stop  offset="0.6652" style="stop-color:#4FCDEE"/>
</linearGradient>
<path class="st0" d="M1367,768c0-61.7,0-123.5,0-185.1c-2.1-14.3-28.7-180.9-136.6-235.9c-87.9-44.8-173.4,13.2-194.4,28.8
	c-73.9,54.9-67.6,118.9-138.2,155.3c-71.5,36.8-142,4.3-157.7-2.9c-65.9-30.4-67.1-73.5-136.7-127.9
	c-25.7-20-130.5-101.8-226.2-62.1c-80.8,33.6-81.7,123.3-166.3,178.3c-73.5,48-153.4,32.9-210.9,11.6c0.7,36.8,1.2,74.2,1.4,112
	c0.3,43.3,0.3,85.9,0,127.9H1367z"/>
<linearGradient id="SVGID_2_" gradientUnits="userSpaceOnUse" x1="1204.9114" y1="353.533" x2="1205.093" y2="100.0724" gradientTransform="matrix(1 0 0 1 0 -73.89)">
	<stop  offset="0" style="stop-color:#1268FB"/>
	<stop  offset="5.450700e-04" style="stop-color:#2B92F6"/>
	<stop  offset="1.361785e-03" style="stop-color:#4FCDEE"/>
	<stop  offset="0.199" style="stop-color:#53CBEE"/>
	<stop  offset="0.3817" style="stop-color:#5EC6EC"/>
	<stop  offset="0.5585" style="stop-color:#71BDEA"/>
	<stop  offset="0.7318" style="stop-color:#8BB1E7"/>
	<stop  offset="0.9007" style="stop-color:#ADA1E3"/>
	<stop  offset="1" style="stop-color:#C496E0"/>
</linearGradient>
<circle class="st1" cx="1205" cy="156.3" r="104.3"/>
</svg>
